# xmcd CD database file
#
# Track frame offsets:
#	150
#	13953
#	30790
#	50035
#	62695
#	75507
#	92123
#	106367
#	120101
#	136256
#	150498
#	166129
#	181715
#	199123
#
# Disc length: 2908 seconds
#
# Revision: 0
# Processed by: cddbd v1.5.2PL0 Copyright (c) Steve Scherf et al.
# Submitted via: CDex 1.50
#
DISCID=a00b5a0e
DTITLE=Various Artist - Mr. Music Country 05-07
DYEAR=2007
DGENRE=Country
TTITLE0=Bobby G. Cargill - At The Bottom Of The Bottle
TTITLE1=Pam Tillis - Down By The Wather
TTITLE2=Clay Cooper - Old Habits
TTITLE3=Hank Williams and Hank Williams Jr. - There's A Tear In My Beer
TTITLE4=Lori Kline - Good Man, Double Wide and Iroc Z
TTITLE5=Billy Keeble - After You Have Gone
TTITLE6=Kendel Carson - Who Wants To Ride This Train
TTITLE7=Rick Sousley - Stoned At The Jukebox
TTITLE8=Kimberly Marrs - Dear Hank
TTITLE9=Dean Holmen - I Don't Claim To Be An Angel
TTITLE10=Joe Bonson and Coffee Run - All My Bridges But One
TTITLE11=Miss Leslie - Honky Tonk No More
TTITLE12=Aaron Watson - Exept For Jessie
TTITLE13=Joey Allcorn and Hank Williams III - This Ain't Montgomery
EXTD=YEAR: 2007
EXTT0=
EXTT1=
EXTT2=
EXTT3=
EXTT4=
EXTT5=
EXTT6=
EXTT7=
EXTT8=
EXTT9=
EXTT10=
EXTT11=
EXTT12=
EXTT13=
PLAYORDER=
